<?xml version="1.0" standalone="no"?>
<!DOCTYPE svg PUBLIC "-//W3C//DTD SVG 20010904//EN"
 "http://www.w3.org/TR/2001/REC-SVG-20010904/DTD/svg10.dtd">
<svg version="1.0" xmlns="http://www.w3.org/2000/svg"
 width="200.000000pt" height="200.000000pt" viewBox="0 0 200.000000 200.000000"
 preserveAspectRatio="xMidYMid meet">

<g transform="translate(0.000000,200.000000) scale(0.100000,-0.100000)"
fill="#000000" stroke="none">
<path d="M1581 1298 c-45 -8 -103 -45 -121 -77 -22 -41 -23 -97 -2 -144 22
-49 48 -67 155 -107 69 -26 93 -50 78 -79 -23 -42 -93 -39 -113 5 -10 22 -17
24 -75 24 -57 0 -63 -2 -63 -20 0 -38 28 -87 66 -116 32 -25 48 -29 113 -32
64 -3 83 1 121 20 25 13 55 39 68 58 20 30 23 44 20 99 -4 59 -7 67 -41 96
-20 17 -69 44 -109 60 -89 34 -98 41 -98 71 0 52 94 55 107 4 3 -11 8 -20 12
-20 3 -1 32 -2 64 -3 54 -2 57 -1 57 21 0 37 -29 90 -62 113 -35 25 -117 38
-177 27z"/>
<path d="M120 1025 l0 -265 140 0 140 0 0 55 0 55 -65 0 -65 0 0 210 0 210
-75 0 -75 0 0 -265z"/>
<path d="M1020 1235 l0 -55 60 0 60 0 0 -210 0 -210 70 0 70 0 0 210 0 210 60
0 60 0 0 55 0 55 -190 0 -190 0 0 -55z"/>
<path d="M688 1253 c12 -2 30 -2 40 0 9 3 -1 5 -23 4 -22 0 -30 -2 -17 -4z"/>
<path d="M663 1115 c-17 -7 -36 -22 -42 -34 -19 -35 -13 -88 13 -118 20 -23
32 -28 71 -28 39 0 51 5 71 28 45 52 25 134 -38 156 -38 13 -36 13 -75 -4z"/>
<path d="M972 1030 c0 -19 2 -27 5 -17 2 9 2 25 0 35 -3 9 -5 1 -5 -18z"/>
<path d="M472 1030 c0 -14 2 -19 5 -12 2 6 2 18 0 25 -3 6 -5 1 -5 -13z"/>
<path d="M683 843 c9 -2 25 -2 35 0 9 3 1 5 -18 5 -19 0 -27 -2 -17 -5z"/>
<path d="M750 660 c0 -5 5 -10 10 -10 6 0 10 5 10 10 0 6 -4 10 -10 10 -5 0
-10 -4 -10 -10z"/>
<path d="M1836 661 c-4 -5 -2 -12 3 -15 5 -4 12 -2 15 3 4 5 2 12 -3 15 -5 4
-12 2 -15 -3z"/>
</g>
</svg>
