<?xml version="1.0" standalone="no"?>
<!DOCTYPE svg PUBLIC "-//W3C//DTD SVG 20010904//EN"
 "http://www.w3.org/TR/2001/REC-SVG-20010904/DTD/svg10.dtd">
<svg version="1.0" xmlns="http://www.w3.org/2000/svg"
 width="590.000000pt" height="590.000000pt" viewBox="0 0 590.000000 590.000000"
 preserveAspectRatio="xMidYMid meet">

<g transform="translate(0.000000,590.000000) scale(0.100000,-0.100000)"
fill="#000000" stroke="none">
<path d="M672 5503 c-7 -3 16 -15 51 -28 105 -36 220 -139 234 -208 6 -29 20
-31 36 -5 18 28 -4 72 -66 134 -89 87 -195 131 -255 107z"/>
<path d="M2292 5485 c-18 -8 -47 -24 -63 -36 -27 -19 -28 -22 -13 -33 15 -11
14 -15 -10 -41 -14 -15 -26 -32 -26 -37 0 -5 -13 -7 -28 -3 -27 6 -30 3 -62
-67 -28 -61 -35 -87 -38 -158 -3 -72 0 -90 17 -118 24 -38 72 -69 119 -78 69
-13 179 57 239 151 31 49 42 55 50 26 11 -44 73 -43 73 1 0 18 -34 43 -48 34
-4 -3 -13 -1 -20 3 -9 5 -6 21 10 61 29 76 29 185 0 231 -39 64 -133 94 -200
64z m147 -74 c62 -62 18 -246 -87 -362 -75 -84 -165 -114 -196 -66 -67 101 41
359 178 427 51 25 81 25 105 1z"/>
<path d="M834 5105 c0 -77 2 -107 3 -67 2 40 2 103 0 140 -2 37 -3 4 -3 -73z"/>
<path d="M894 5151 c16 -17 32 -28 36 -26 4 2 48 -20 99 -50 50 -29 91 -51 91
-47 0 4 -43 31 -95 61 -52 30 -95 58 -95 62 0 4 -14 12 -32 18 l-32 11 28 -29z"/>
<path d="M3737 5122 c-22 -24 -21 -32 3 -32 11 0 28 -9 37 -19 9 -11 23 -17
31 -14 11 5 13 1 7 -18 l-7 -24 26 24 c35 33 33 57 -6 81 -41 25 -70 25 -91 2z"/>
<path d="M3090 5066 c0 -8 14 -50 30 -93 23 -59 37 -83 59 -96 28 -16 30 -16
39 -1 13 23 35 7 28 -20 -4 -17 1 -24 22 -33 15 -6 55 -28 90 -48 79 -46 85
-36 42 78 -29 76 -37 87 -74 107 -22 13 -78 45 -122 71 -84 50 -114 59 -114
35z"/>
<path d="M4708 5044 c-37 -20 -39 -65 -3 -88 32 -21 32 -21 27 12 -3 22 2 30
25 42 15 8 29 15 31 16 1 1 0 9 -4 18 -8 20 -40 20 -76 0z"/>
<path d="M2643 5019 c-13 -33 -1 -48 22 -29 19 15 19 46 2 53 -8 3 -18 -7 -24
-24z"/>
<path d="M920 5010 c-12 -7 -11 -12 5 -32 15 -17 16 -20 3 -9 -17 12 -18 9
-18 -52 l0 -66 94 -56 c52 -30 99 -55 105 -55 6 0 11 -7 11 -16 0 -8 4 -13 8
-10 5 3 27 -6 51 -20 24 -13 46 -24 51 -24 12 0 9 148 -3 158 -7 5 -39 24 -72
41 -121 66 -225 133 -220 142 8 11 4 11 -15 -1z m219 -237 c2 -2 2 -5 0 -8 -3
-2 -25 17 -50 43 l-44 47 45 -40 c25 -22 47 -41 49 -42z"/>
<path d="M542 4913 l2 -88 5 82 c5 70 8 81 21 73 8 -5 20 -10 25 -9 11 0 -35
28 -47 29 -5 0 -7 -39 -6 -87z"/>
<path d="M5450 4957 c-144 -83 -275 -159 -278 -162 -3 -2 -22 -52 -68 -179
-33 -88 -23 -102 44 -65 181 100 184 102 179 132 -5 39 25 56 46 26 l15 -21
39 25 c35 22 44 37 82 136 61 161 55 174 -59 108z"/>
<path d="M3990 4895 c-11 -30 -25 -132 -16 -124 7 6 35 149 29 149 -2 0 -8
-11 -13 -25z"/>
<path d="M3508 4807 c-41 -26 -43 -22 41 -69 20 -11 62 -36 93 -55 57 -34 58
-34 93 -17 19 9 38 20 40 25 11 16 -16 20 -45 5 -17 -8 -30 -10 -30 -5 0 6 -4
8 -9 5 -13 -8 -23 26 -12 37 7 7 0 18 -21 34 -36 26 -58 30 -58 9 0 -9 -8 -12
-25 -8 -25 4 -34 26 -15 37 11 7 4 25 -8 25 -4 0 -24 -11 -44 -23z"/>
<path d="M3227 4800 c-4 -14 -7 -33 -7 -43 0 -17 1 -17 30 0 34 19 40 38 11
28 -15 -4 -20 0 -23 17 -3 23 -3 23 -11 -2z"/>
<path d="M3695 4776 c-28 -20 -5 -24 92 -17 14 1 13 4 -6 17 -19 14 -25 14
-31 3 -7 -10 -12 -10 -23 -1 -10 9 -18 9 -32 -2z"/>
<path d="M4680 4779 c0 -17 29 -152 34 -156 10 -10 7 28 -8 90 -11 47 -26 85
-26 66z"/>
<path d="M3975 4739 c14 -21 -7 -60 -47 -89 -22 -17 -35 -30 -28 -30 24 0 90
76 90 104 0 14 -5 26 -11 26 -5 0 -7 -5 -4 -11z"/>
<path d="M3775 4721 c-3 -6 3 -14 12 -20 21 -11 22 -10 -38 -45 l-47 -27 -52
31 c-39 23 -55 28 -61 19 -11 -18 0 -39 25 -44 95 -19 154 -24 188 -14 35 9
37 12 31 39 -4 23 0 34 18 50 l24 19 -47 1 c-26 0 -49 -4 -53 -9z"/>
<path d="M3892 4713 c-37 -18 -47 -34 -38 -58 7 -20 39 -5 62 30 23 36 14 47
-24 28z"/>
<path d="M1085 4681 c17 -10 34 -16 39 -13 5 2 -6 11 -24 18 -45 19 -51 17
-15 -5z"/>
<path d="M3010 4517 c0 -152 3 -187 15 -197 17 -14 16 -20 16 123 0 48 2 87 5
87 5 0 127 -71 156 -92 9 -6 28 -16 41 -22 13 -6 110 -63 215 -126 l192 -115
0 -116 c0 -97 3 -118 16 -123 9 -3 18 -6 20 -6 2 0 4 82 4 183 l0 182 -302
182 c-167 99 -320 191 -340 203 l-38 22 0 -185z"/>
<path d="M831 4550 c-1 -69 -2 -144 -1 -167 2 -48 -2 -50 -53 -28 -44 18 -91
19 -105 3 -8 -10 -4 -13 13 -14 93 -6 275 -158 275 -231 0 -21 2 -22 20 -11
28 18 25 58 -9 105 -29 40 -108 113 -123 113 -4 0 -9 80 -11 178 -2 162 -3
166 -6 52z"/>
<path d="M4966 4626 c-12 -28 -22 -36 -51 -42 -20 -3 -54 -4 -76 -1 -47 6 -49
-2 -9 -32 23 -16 29 -28 25 -42 -5 -14 0 -22 17 -29 24 -11 20 -13 151 63 18
10 39 25 47 33 15 15 11 19 -61 67 l-28 18 -15 -35z"/>
<path d="M3520 4621 c0 -17 5 -31 10 -31 6 0 10 11 10 24 0 14 -4 28 -10 31
-6 4 -10 -7 -10 -24z"/>
<path d="M5310 4610 c-13 -9 -12 -12 4 -25 23 -17 40 -6 30 18 -7 20 -13 21
-34 7z"/>
<path d="M3870 4591 c-19 -9 -51 -26 -70 -35 l-34 -19 57 -29 c35 -17 55 -33
51 -40 -8 -13 -8 -13 84 35 68 35 94 67 55 67 -10 0 -31 9 -48 20 -36 24 -50
24 -95 1z"/>
<path d="M542 4591 c2 -7 46 -38 98 -68 52 -30 100 -60 105 -67 6 -7 21 -15
34 -19 l23 -6 -23 25 c-12 13 -28 24 -35 24 -16 0 -186 98 -197 113 -6 8 -7 8
-5 -2z"/>
<path d="M4700 4566 c0 -24 8 -44 28 -64 34 -36 82 -68 82 -54 0 6 -9 13 -19
17 -34 10 -83 75 -78 102 2 13 0 26 -4 29 -5 3 -9 -11 -9 -30z"/>
<path d="M3506 4565 c10 -8 26 -14 34 -14 9 0 4 6 -10 14 -33 19 -49 19 -24 0z"/>
<path d="M1894 4548 c-4 -7 -7 -131 -6 -275 1 -202 -2 -262 -11 -256 -8 4 -7
1 1 -10 11 -13 13 -97 11 -439 -2 -233 0 -432 4 -443 7 -21 56 -51 592 -360
154 -89 372 -215 485 -280 195 -113 604 -349 921 -531 80 -46 150 -84 156 -84
6 0 14 7 17 16 11 28 7 1379 -4 1410 -8 23 -39 45 -153 110 -78 45 -196 113
-262 151 -66 39 -282 163 -480 278 -198 114 -475 274 -615 355 -502 291 -640
370 -644 370 -3 0 -8 -5 -12 -12z m529 -393 c344 -198 347 -200 347 -232 0
-18 -3 -33 -6 -33 -3 0 -74 40 -157 88 -84 49 -241 140 -349 203 -195 112
-198 114 -198 147 0 19 4 32 8 30 5 -1 165 -93 355 -203z m335 -308 c259 -149
262 -151 262 -184 0 -18 -2 -33 -4 -33 -4 0 -687 393 -863 497 -88 51 -93 56
-93 88 l0 34 218 -125 c119 -70 335 -194 480 -277z m-465 103 c91 -52 97 -57
97 -87 0 -18 -3 -33 -6 -33 -4 0 -78 41 -165 92 -156 90 -159 93 -159 126 l0
34 68 -39 c37 -21 111 -63 165 -93z m-33 -138 c183 -107 185 -108 188 -144 l3
-37 -195 112 c-191 109 -196 113 -196 145 0 17 3 32 8 32 4 -1 90 -49 192
-108z m266 2 c59 -33 64 -38 64 -70 l0 -35 -32 17 c-86 44 -108 64 -108 94 0
17 3 30 6 30 3 0 35 -16 70 -36z m702 -124 c107 -61 112 -66 112 -97 0 -18 -2
-33 -4 -33 -2 0 -79 43 -170 96 -164 95 -166 96 -166 131 l0 34 58 -33 c32
-18 108 -62 170 -98z m-517 18 c53 -30 59 -36 59 -65 0 -18 -3 -33 -7 -33 -5
1 -33 16 -63 34 -46 27 -56 37 -58 64 -2 18 0 32 3 32 4 0 33 -15 66 -32z
m-426 -88 c10 -11 16 -20 13 -20 -3 0 -13 9 -23 20 -10 11 -16 20 -13 20 3 0
13 -9 23 -20z m1153 -165 c187 -107 192 -111 192 -142 0 -18 -3 -33 -7 -33 -3
0 -120 66 -260 146 -253 147 -253 147 -253 181 l0 35 68 -39 c37 -21 154 -87
260 -148z m-1120 10 c116 -67 122 -71 122 -102 0 -18 -2 -33 -5 -33 -3 0 -89
48 -190 106 -183 106 -185 107 -185 141 l0 35 68 -39 c37 -21 123 -69 190
-108z m-43 -133 c180 -103 190 -111 193 -141 3 -24 0 -32 -11 -29 -8 1 -100
53 -205 113 -189 108 -192 111 -192 144 0 22 4 32 13 28 6 -3 98 -54 202 -115z
m493 31 c26 -14 32 -22 32 -50 0 -18 -3 -33 -6 -33 -4 0 -47 23 -95 51 -85 48
-89 52 -89 85 l0 35 63 -36 c34 -20 77 -43 95 -52z m-209 -39 c56 -33 61 -39
61 -71 l0 -35 -47 28 c-27 15 -56 32 -65 38 -11 7 -18 23 -18 43 0 18 2 33 4
33 3 0 32 -16 65 -36z m373 -57 c64 -38 73 -48 76 -75 2 -18 0 -32 -4 -32 -5
0 -41 19 -81 42 -68 38 -73 44 -73 75 0 18 2 33 4 33 2 0 37 -19 78 -43z
m-629 -107 c142 -82 147 -86 147 -117 0 -18 -3 -33 -7 -33 -5 1 -91 49 -193
108 -185 108 -185 108 -188 145 l-3 38 48 -28 c27 -15 115 -66 196 -113z m305
-56 l3 -36 -53 30 c-47 27 -53 35 -56 68 l-3 36 53 -30 c47 -27 53 -35 56 -68z"/>
<path d="M5545 4545 c-47 -29 -258 -156 -347 -209 l-98 -57 0 -189 c0 -105 3
-190 6 -190 4 0 450 265 462 275 4 3 4 376 0 380 -2 2 -12 -3 -23 -10z"/>
<path d="M4982 4468 c3 -30 6 -33 37 -33 32 0 35 3 38 33 4 32 3 32 -37 32
-41 0 -41 -1 -38 -32z"/>
<path d="M4830 4432 c0 -5 12 -14 27 -21 22 -10 25 -10 15 2 -7 8 -9 17 -5 20
3 4 -3 7 -15 7 -12 0 -22 -4 -22 -8z"/>
<path d="M340 3803 c-8 -2 -25 -9 -37 -15 -20 -10 -21 -12 -6 -34 13 -20 18
-22 35 -13 29 16 104 6 160 -20 26 -12 77 -49 113 -83 50 -46 69 -58 77 -50
12 12 7 18 -67 96 -42 45 -129 94 -200 112 -54 15 -53 15 -75 7z"/>
<path d="M1415 3710 c-3 -5 -1 -10 4 -10 6 0 11 5 11 10 0 6 -2 10 -4 10 -3 0
-8 -4 -11 -10z"/>
<path d="M1500 3666 c0 -52 -1 -54 -31 -60 -50 -10 -69 -7 -69 9 0 10 -11 15
-35 15 -19 0 -35 5 -35 10 0 6 -11 10 -24 10 -30 0 -54 -33 -84 -113 -28 -74
-29 -107 -3 -107 17 0 19 -7 18 -67 l-2 -67 55 -28 c68 -34 104 -35 134 -5 22
22 23 27 13 75 -8 39 -7 65 4 113 12 55 17 63 44 72 53 17 65 35 65 94 0 51
-21 103 -41 103 -5 0 -9 -24 -9 -54z"/>
<path d="M372 3677 c-12 -6 -22 -13 -22 -16 1 -22 23 -33 76 -35 48 -2 69 -8
106 -34 25 -17 48 -29 52 -27 3 3 4 2 1 -1 -2 -4 8 -21 23 -39 15 -18 35 -43
44 -55 11 -15 23 -20 34 -16 16 6 16 8 -1 26 -15 17 -16 22 -4 36 12 15 15 14
34 -10 12 -15 25 -22 33 -18 9 6 4 20 -17 54 -30 47 -31 68 -2 45 14 -11 14
-10 2 6 -13 17 -15 17 -37 -4 -18 -17 -21 -25 -13 -36 9 -9 8 -17 -1 -28 -10
-12 -21 -6 -68 43 -32 31 -70 66 -86 77 -48 34 -117 48 -154 32z"/>
<path d="M5210 3513 c-69 -40 -124 -77 -123 -83 2 -5 -4 -7 -12 -4 -13 5 -15
-9 -15 -90 0 -53 2 -96 4 -96 13 0 269 155 272 165 3 6 4 50 2 96 l-3 84 -125
-72z m-104 -108 c-1 -8 -6 -18 -11 -22 -4 -5 -5 -2 0 6 6 11 4 13 -11 8 -18
-7 -18 -7 0 8 24 18 25 18 22 0z"/>
<path d="M428 3559 c-17 -9 -17 -12 -2 -34 9 -14 20 -22 26 -19 19 12 61 -8
107 -51 31 -29 51 -41 60 -36 9 6 2 21 -31 58 -59 69 -125 102 -160 82z"/>
<path d="M567 3529 c7 -7 15 -10 18 -7 3 3 -2 9 -12 12 -14 6 -15 5 -6 -5z"/>
<path d="M954 3468 c15 -84 18 -153 8 -201 -6 -29 -14 -73 -16 -99 -5 -47 -5
-48 22 -48 25 0 28 4 39 58 7 31 19 80 27 107 17 57 18 54 20 -108 1 -59 7
-112 12 -117 7 -7 19 -7 36 -1 23 9 25 13 21 58 -3 27 -1 100 5 163 5 63 7
132 5 152 -4 33 -8 36 -23 28 -30 -16 -64 -12 -115 15 l-47 26 6 -33z"/>
<path d="M488 3439 c-17 -9 -26 -49 -12 -49 12 0 44 43 38 51 -6 11 -5 11 -26
-2z"/>
<path d="M505 3400 c-28 -29 -28 -30 -10 -50 25 -27 70 -24 69 5 0 11 -7 32
-15 48 l-15 27 -29 -30z"/>
<path d="M556 3421 c-4 -5 -2 -12 3 -15 5 -4 12 -2 15 3 4 5 2 12 -3 15 -5 4
-12 2 -15 -3z"/>
<path d="M4873 3327 l-143 -82 0 -94 c0 -79 2 -92 15 -87 41 15 205 118 200
126 -3 4 3 6 12 4 10 -2 28 4 41 14 21 16 23 24 20 109 l-3 92 -142 -82z m61
-33 c14 -37 -17 -99 -63 -123 -48 -26 -68 35 -31 97 29 48 80 62 94 26z"/>
<path d="M4871 3247 c-16 -20 -6 -56 10 -40 6 6 9 21 7 33 -3 21 -4 22 -17 7z"/>
<path d="M5416 3319 c-14 -11 -26 -25 -26 -30 0 -5 19 -28 42 -51 45 -44 60
-44 87 4 19 33 8 72 -24 86 -36 17 -48 15 -79 -9z"/>
<path d="M5173 3283 c-15 -5 -18 -33 -4 -33 8 0 25 30 19 35 -2 1 -9 0 -15 -2z"/>
<path d="M5080 3205 c33 -19 50 -18 26 0 -11 8 -27 15 -35 15 -10 -1 -7 -6 9
-15z"/>
<path d="M5694 3179 c-12 -14 -24 -99 -14 -99 22 1 31 22 28 65 -2 38 -5 45
-14 34z"/>
<path d="M4842 3097 c-9 -11 -10 -17 -2 -22 15 -9 23 -1 18 21 -3 15 -4 16
-16 1z"/>
<path d="M938 3078 c9 -9 15 -9 24 0 9 9 7 12 -12 12 -19 0 -21 -3 -12 -12z"/>
<path d="M1060 3028 c0 -11 28 -10 35 1 3 6 -4 9 -15 8 -11 -1 -20 -5 -20 -9z"/>
<path d="M4756 3025 c10 -8 25 -15 33 -15 11 0 9 4 -5 15 -10 8 -25 15 -33 15
-11 0 -9 -4 5 -15z"/>
<path d="M431 3000 c-26 -27 -29 -34 -20 -62 5 -18 9 -34 9 -35 0 -1 7 0 15 3
9 4 15 0 16 -7 1 -8 2 -22 3 -33 0 -10 14 -28 29 -40 31 -23 54 -16 68 21 11
29 -16 38 -40 14 -18 -18 -20 -18 -35 -2 -14 15 -13 18 5 29 11 7 28 10 38 7
11 -3 24 2 32 12 13 16 12 17 -3 4 -12 -9 -18 -10 -18 -2 0 6 7 14 15 17 19 8
27 36 19 67 -3 16 -11 24 -19 21 -7 -3 -16 -1 -20 5 -13 22 -63 12 -94 -19z
m64 -90 c-3 -5 -10 -10 -16 -10 -5 0 -9 5 -9 10 0 6 7 10 16 10 8 0 12 -4 9
-10z"/>
<path d="M5703 2965 c0 -33 2 -45 4 -27 2 18 2 45 0 60 -2 15 -4 0 -4 -33z"/>
<path d="M1323 2992 c-6 -4 -13 -17 -17 -29 -6 -17 -15 -23 -37 -23 -30 0 -41
-23 -15 -33 17 -7 83 41 89 65 6 20 -4 30 -20 20z"/>
<path d="M5310 2944 c0 -22 2 -24 14 -14 8 6 12 18 9 26 -9 23 -23 16 -23 -12z"/>
<path d="M5360 2910 c0 -5 5 -10 10 -10 6 0 10 5 10 10 0 6 -4 10 -10 10 -5 0
-10 -4 -10 -10z"/>
<path d="M1443 2903 c-7 -3 -13 -13 -13 -22 0 -23 -28 -48 -60 -53 -20 -4 -22
-6 -9 -12 19 -8 109 50 109 70 0 16 -11 23 -27 17z"/>
<path d="M490 2880 c-9 -6 -10 -10 -3 -10 6 0 15 5 18 10 8 12 4 12 -15 0z"/>
<path d="M5330 2876 c0 -17 44 -50 96 -72 45 -19 53 -13 23 19 -55 56 -119 84
-119 53z"/>
<path d="M5693 2871 c-7 -12 -13 -33 -13 -48 0 -25 1 -26 16 -12 9 10 14 29
12 48 -3 30 -4 31 -15 12z"/>
<path d="M5063 2813 c-17 -6 -19 -373 -3 -373 19 0 21 23 18 201 -2 135 -6
175 -15 172z"/>
<path d="M5295 2778 c-4 -23 -5 -63 -3 -88 3 -41 6 -45 31 -48 27 -3 27 -3 27
57 0 34 2 61 5 61 4 0 19 -7 36 -15 16 -9 34 -13 40 -10 5 4 -14 18 -43 32
-29 15 -61 33 -70 40 -15 13 -17 11 -23 -29z"/>
<path d="M660 2643 c0 -10 4 -23 8 -28 10 -15 63 -12 97 7 l29 16 -39 11 c-61
17 -95 14 -95 -6z"/>
<path d="M570 2632 c0 -11 -9 -27 -20 -37 -32 -29 -24 -38 28 -30 26 4 49 9
51 11 2 2 -4 20 -15 39 -20 38 -44 47 -44 17z"/>
<path d="M371 2509 c0 -24 6 -69 12 -99 16 -73 36 -83 129 -66 49 9 72 19 87
37 l19 24 -30 19 c-16 10 -44 19 -61 20 -31 1 -32 2 -30 43 2 46 7 42 -89 59
l-38 6 1 -43z"/>
<path d="M578 2486 c-24 -18 -23 -23 12 -41 l30 -16 0 36 c0 37 -13 44 -42 21z"/>
<path d="M700 2432 c0 -10 -5 -23 -12 -30 -20 -20 7 -14 32 6 13 11 20 24 16
30 -11 18 -36 14 -36 -6z"/>
<path d="M1335 2090 c-71 -44 -134 -81 -140 -83 -5 -3 -7 -7 -4 -11 6 -6 225
120 274 158 49 38 -11 8 -130 -64z"/>
<path d="M1103 1953 c-18 -9 -33 -20 -33 -25 0 -12 10 -10 46 13 53 32 43 40
-13 12z"/>
<path d="M978 1884 c-38 -20 -36 -28 2 -9 17 9 30 18 30 20 0 7 -1 6 -32 -11z"/>
<path d="M4941 1874 c-38 -16 -37 -34 5 -47 16 -5 36 -16 45 -23 22 -19 52 3
47 36 -5 35 -53 52 -97 34z"/>
<path d="M888 1834 c-27 -13 -48 -27 -48 -29 0 -3 23 6 50 20 28 14 50 28 50
30 0 7 1 7 -52 -21z"/>
<path d="M4901 1744 c-1 -36 22 -47 62 -31 19 8 38 20 41 26 10 15 -5 13 -28
-4 -28 -21 -51 -18 -64 8 -11 22 -11 22 -11 1z"/>
<path d="M1704 1505 c-10 -8 -14 -15 -8 -15 6 0 17 7 24 15 16 19 9 19 -16 0z"/>
<path d="M4665 1483 c-11 -2 -30 -6 -42 -9 -18 -3 -23 -11 -23 -37 0 -38 19
-62 81 -109 25 -19 44 -39 41 -46 -2 -7 6 -12 18 -12 50 0 109 -52 96 -85 -8
-23 16 -30 31 -9 9 12 13 33 10 55 -3 20 -1 43 4 50 6 10 9 4 9 -18 0 -26 8
-37 46 -62 48 -33 65 -37 95 -21 30 17 46 59 53 144 5 72 5 78 -12 71 -60 -27
-135 -3 -161 51 -8 16 -19 32 -25 36 -11 8 -186 9 -221 1z m220 -137 c36 -14
61 -30 63 -40 3 -14 -1 -16 -25 -10 -42 10 -133 55 -133 65 0 14 31 10 95 -15z"/>
<path d="M5043 953 c0 -8 6 -9 19 -2 10 5 18 11 18 12 0 2 -8 3 -18 3 -10 0
-19 -6 -19 -13z"/>
<path d="M4712 865 c0 -51 1 -55 9 -30 5 18 5 43 0 60 -8 25 -9 20 -9 -30z"/>
<path d="M53 847 c-61 -11 -74 -37 -20 -37 40 0 87 20 87 38 0 6 -3 11 -7 11
-5 -1 -32 -6 -60 -12z"/>
<path d="M4839 833 c-13 -17 -13 -17 6 -3 11 8 22 16 24 17 2 2 0 3 -6 3 -6 0
-17 -8 -24 -17z"/>
<path d="M4778 803 c7 -3 16 -2 19 1 4 3 -2 6 -13 5 -11 0 -14 -3 -6 -6z"/>
<path d="M2175 720 c-3 -5 -2 -10 4 -10 5 0 13 5 16 10 3 6 2 10 -4 10 -5 0
-13 -4 -16 -10z"/>
</g>
</svg>
