<?xml version="1.0" encoding="utf-8"?>
<!-- Generator: Adobe Illustrator 27.5.0, SVG Export Plug-In . SVG Version: 6.00 Build 0)  -->
<svg version="1.1" xmlns="http://www.w3.org/2000/svg" xmlns:xlink="http://www.w3.org/1999/xlink" x="0px" y="0px"
	 viewBox="0 0 750 500" style="enable-background:new 0 0 750 500;" xml:space="preserve">
<g id="BACKGROUND">
	<g>
		<g>
			<rect style="fill:#FFFFFF;" width="750" height="500"/>
		</g>
		<path style="fill:#DFF1F4;" d="M540.851,243.303c-17.044-16.176-26.422-38.814-26.244-62.31c0.003-0.393,0.004-0.786,0.002-1.179
			c-0.198-58.241-48.27-105.668-106.509-105.115c-57.787,0.549-104.462,47.565-104.462,105.481c0,0.544,0.004,1.087,0.012,1.63
			c0.207,13.577-10.649,24.703-24.224,24.997c-0.341,0.007-0.682,0.016-1.023,0.027c-56.246,1.755-101.553,48.062-102.128,104.332
			c-0.6,58.764,46.855,106.588,105.48,106.588c16.041,0,31.244-3.581,44.856-9.987c28.718-13.515,62.058-11.793,89.665,3.868
			c20.537,11.65,45.367,16.609,71.529,11.91c38.856-6.978,77.037-45.041,84.114-83.879
			C578.822,301.782,565.468,266.667,540.851,243.303z"/>
	</g>
</g>
<g id="OBJECTS">
	<g>
		<g>
			<g>
				<path style="fill:#5E8BEF;" d="M255.165,317.354c0,13.56,10.992,24.552,24.552,24.552c13.56,0,24.552-10.992,24.552-24.552
					c0-13.56-10.992-24.552-24.552-24.552C266.157,292.802,255.165,303.794,255.165,317.354z M261.491,317.354
					c0-10.066,8.16-18.226,18.226-18.226c10.066,0,18.226,8.16,18.226,18.226s-8.16,18.226-18.226,18.226
					C269.651,335.579,261.491,327.42,261.491,317.354z"/>
				<path style="fill:#5E8BEF;" d="M263.029,317.354c0,9.216,7.471,16.687,16.687,16.687c9.216,0,16.687-7.471,16.687-16.687
					c0-9.216-7.471-16.687-16.687-16.687C270.501,300.666,263.029,308.138,263.029,317.354z M264.434,317.354
					c0-8.44,6.842-15.283,15.283-15.283S295,308.913,295,317.354s-6.842,15.283-15.283,15.283S264.434,325.794,264.434,317.354z"/>
				<g>
					<g>
						<polygon style="fill:#5E8BEF;" points="273.711,284.774 285.723,284.774 288.599,298.478 270.834,298.478 						"/>
						<polygon style="fill:#5E8BEF;" points="285.723,349.934 273.711,349.934 270.834,336.229 288.599,336.229 						"/>
					</g>
					<g>
						<polygon style="fill:#5E8BEF;" points="247.137,323.36 247.137,311.348 260.841,308.471 260.841,326.236 						"/>
						<polygon style="fill:#5E8BEF;" points="312.297,311.348 312.297,323.36 298.592,326.236 298.592,308.471 						"/>
					</g>
				</g>
				<g>
					<g>
						<polygon style="fill:#5E8BEF;" points="252.432,298.563 260.926,290.069 272.65,297.726 260.089,310.287 						"/>
						<polygon style="fill:#5E8BEF;" points="307.001,336.144 298.507,344.638 286.783,336.982 299.345,324.42 						"/>
					</g>
					<g>
						<polygon style="fill:#5E8BEF;" points="260.926,344.638 252.432,336.144 260.089,324.42 272.65,336.982 						"/>
						<polygon style="fill:#5E8BEF;" points="298.507,290.069 307.001,298.563 299.345,310.287 286.783,297.726 						"/>
					</g>
				</g>
			</g>
			<g>
				<path style="fill:#83A9FF;" d="M260.163,317.354c0,13.56,10.992,24.552,24.552,24.552c13.56,0,24.552-10.992,24.552-24.552
					c0-13.56-10.992-24.552-24.552-24.552C271.155,292.802,260.163,303.794,260.163,317.354z M266.489,317.354
					c0-10.066,8.16-18.226,18.226-18.226s18.226,8.16,18.226,18.226s-8.16,18.226-18.226,18.226S266.489,327.42,266.489,317.354z"/>
				<path style="fill:#83A9FF;" d="M268.027,317.354c0,9.216,7.471,16.687,16.687,16.687s16.687-7.471,16.687-16.687
					c0-9.216-7.471-16.687-16.687-16.687S268.027,308.138,268.027,317.354z M269.432,317.354c0-8.44,6.842-15.283,15.283-15.283
					c8.44,0,15.283,6.842,15.283,15.283s-6.842,15.283-15.283,15.283C276.274,332.637,269.432,325.794,269.432,317.354z"/>
				<g>
					<g>
						<polygon style="fill:#83A9FF;" points="278.709,284.774 290.721,284.774 293.597,298.478 275.833,298.478 						"/>
						<polygon style="fill:#83A9FF;" points="290.721,349.934 278.709,349.934 275.833,336.229 293.597,336.229 						"/>
					</g>
					<g>
						<polygon style="fill:#83A9FF;" points="252.135,323.36 252.135,311.348 265.839,308.471 265.839,326.236 						"/>
						<polygon style="fill:#83A9FF;" points="317.295,311.348 317.295,323.36 303.591,326.236 303.591,308.471 						"/>
					</g>
				</g>
				<g>
					<g>
						<polygon style="fill:#83A9FF;" points="257.43,298.563 265.924,290.069 277.648,297.726 265.087,310.287 						"/>
						<polygon style="fill:#83A9FF;" points="311.999,336.144 303.505,344.638 291.781,336.982 304.343,324.42 						"/>
					</g>
					<g>
						<polygon style="fill:#83A9FF;" points="265.924,344.638 257.43,336.144 265.087,324.42 277.648,336.982 						"/>
						<polygon style="fill:#83A9FF;" points="303.505,290.069 311.999,298.563 304.343,310.287 291.781,297.726 						"/>
					</g>
				</g>
			</g>
		</g>
		<g>
			<g>
				<path style="fill:#5E8BEF;" d="M318.929,379.048c7.718,16.76,27.561,24.091,44.322,16.373
					c16.76-7.718,24.091-27.561,16.373-44.321c-7.718-16.76-27.561-24.091-44.321-16.373
					C318.542,342.444,311.211,362.288,318.929,379.048z M326.749,375.447c-5.729-12.442-0.288-27.172,12.154-32.901
					c12.442-5.729,27.172-0.288,32.901,12.154c5.729,12.442,0.288,27.172-12.154,32.901
					C347.208,393.33,332.478,387.889,326.749,375.447z"/>
				<path style="fill:#5E8BEF;" d="M328.65,374.572c5.246,11.391,18.733,16.374,30.124,11.128
					c11.391-5.246,16.374-18.732,11.128-30.124c-5.246-11.391-18.733-16.374-30.124-11.128
					C328.387,349.693,323.405,363.18,328.65,374.572z M330.387,373.772c-4.804-10.433-0.241-22.784,10.191-27.589
					c10.433-4.804,22.784-0.241,27.589,10.192c4.804,10.433,0.241,22.784-10.191,27.588
					C347.542,388.768,335.19,384.205,330.387,373.772z"/>
				<g>
					<g>
						<polygon style="fill:#5E8BEF;" points="323.309,328.223 338.157,321.386 349.512,336.687 327.554,346.798 						"/>
						<polygon style="fill:#5E8BEF;" points="375.244,401.925 360.396,408.762 349.041,393.46 370.999,383.349 						"/>
					</g>
					<g>
						<polygon style="fill:#5E8BEF;" points="312.425,391.041 305.588,376.193 320.89,364.839 331.001,386.796 						"/>
						<polygon style="fill:#5E8BEF;" points="386.128,339.107 392.965,353.954 377.663,365.309 367.552,343.352 						"/>
					</g>
				</g>
				<g>
					<g>
						<polygon style="fill:#5E8BEF;" points="304.857,357.378 310.521,342.044 329.371,344.835 320.994,367.511 						"/>
						<polygon style="fill:#5E8BEF;" points="393.696,372.77 388.032,388.103 369.182,385.313 377.559,362.637 						"/>
					</g>
					<g>
						<polygon style="fill:#5E8BEF;" points="341.58,409.493 326.247,403.829 329.038,384.98 351.714,393.357 						"/>
						<polygon style="fill:#5E8BEF;" points="356.973,320.654 372.306,326.319 369.515,345.168 346.839,336.791 						"/>
					</g>
				</g>
			</g>
			<g>
				<path style="fill:#83A9FF;" d="M325.107,376.203c7.718,16.76,27.561,24.091,44.322,16.373
					c16.76-7.718,24.091-27.561,16.373-44.321c-7.718-16.76-27.561-24.091-44.321-16.373
					C324.72,339.6,317.389,359.443,325.107,376.203z M332.927,372.602c-5.729-12.442-0.288-27.172,12.154-32.901
					c12.442-5.729,27.172-0.288,32.901,12.154c5.729,12.442,0.288,27.172-12.154,32.901
					C353.386,390.486,338.656,385.044,332.927,372.602z"/>
				<path style="fill:#83A9FF;" d="M334.828,371.727c5.245,11.391,18.733,16.374,30.124,11.128
					c11.391-5.245,16.374-18.732,11.128-30.124c-5.245-11.391-18.732-16.374-30.124-11.128
					C334.565,346.848,329.583,360.336,334.828,371.727z M336.564,370.928c-4.804-10.433-0.241-22.784,10.191-27.589
					c10.433-4.804,22.785-0.241,27.589,10.192c4.804,10.433,0.241,22.784-10.191,27.588
					C353.72,385.923,341.368,381.36,336.564,370.928z"/>
				<g>
					<g>
						<polygon style="fill:#83A9FF;" points="329.487,325.378 344.335,318.541 355.69,333.842 333.732,343.954 						"/>
						<polygon style="fill:#83A9FF;" points="381.422,399.08 366.574,405.917 355.219,390.615 377.177,380.504 						"/>
					</g>
					<g>
						<polygon style="fill:#83A9FF;" points="318.603,388.196 311.766,373.349 327.068,361.994 337.179,383.951 						"/>
						<polygon style="fill:#83A9FF;" points="392.306,336.262 399.143,351.109 383.841,362.464 373.73,340.507 						"/>
					</g>
				</g>
				<g>
					<g>
						<polygon style="fill:#83A9FF;" points="311.035,354.533 316.699,339.2 335.548,341.99 327.172,364.666 						"/>
						<polygon style="fill:#83A9FF;" points="399.874,369.925 394.21,385.258 375.36,382.468 383.737,359.792 						"/>
					</g>
					<g>
						<polygon style="fill:#83A9FF;" points="347.758,406.648 332.425,400.984 335.216,382.135 357.892,390.512 						"/>
						<polygon style="fill:#83A9FF;" points="363.151,317.81 378.484,323.474 375.693,342.323 353.017,333.946 						"/>
					</g>
				</g>
			</g>
		</g>
		<g>
			<g>
				<path style="fill:none;stroke:#1C77B5;stroke-miterlimit:10;" d="M238.104,406.295c27.982-2.947,33.333-29.559,31.555-43.04"/>
				<circle style="fill:#EDCB3A;" cx="269.966" cy="361.678" r="6.132"/>
				<path style="fill:none;stroke:#1C77B5;stroke-miterlimit:10;" d="M263.834,390.829c17.825,3.24,23.307-9.843,23.307-9.843"/>
				
					<ellipse transform="matrix(0.9239 -0.3827 0.3827 0.9239 -122.4573 138.9481)" style="fill:#EDCB3A;" cx="288.04" cy="377.291" rx="6.132" ry="6.132"/>
			</g>
			<path style="fill:#83A9FF;" d="M255.8,403.362c-0.299,0-0.59,0.033-0.887,0.045c-3.651-16.375-18.257-28.619-35.732-28.619
				c-17.475,0-32.081,12.244-35.732,28.619c-0.297-0.012-0.588-0.045-0.887-0.045c-12.334,0-22.332,9.999-22.332,22.332
				c0,12.334,9.999,22.332,22.332,22.332H255.8c12.334,0,22.332-9.999,22.332-22.332C278.132,413.361,268.134,403.362,255.8,403.362
				z"/>
		</g>
		<g>
			<rect x="89.598" y="428.625" style="fill:#1C77B5;" width="112.191" height="19.401"/>
			
				<rect x="89.123" y="209.226" transform="matrix(-1 -1.224647e-16 1.224647e-16 -1 290.4376 437.8531)" style="fill:#1C77B5;" width="112.191" height="19.401"/>
			<path style="fill:#D0EFF4;" d="M178.205,293.766c8.955-4.632,14.727-13.71,14.727-23.792v-41.32H97.506v41.32
				c0,10.082,5.772,19.16,14.727,23.792c7.443,3.85,14.002,9.166,19.301,15.564c9.239,11.156,9.239,27.516,0,38.672
				c-5.299,6.398-11.858,11.714-19.301,15.564c-8.955,4.632-14.727,13.71-14.727,23.793v41.32h95.426v-41.32
				c0-10.082-5.772-19.16-14.727-23.792c-7.443-3.85-14.002-9.166-19.301-15.564c-9.239-11.156-9.239-27.516,0-38.672
				C164.203,302.931,170.762,297.616,178.205,293.766z"/>
			<path style="fill:#ECB220;" d="M145.219,380.948L145.219,380.948c-24,0-43.455,19.456-43.455,43.455l0,0h86.911l0,0
				C188.674,400.404,169.218,380.948,145.219,380.948z"/>
			<path style="fill:#FF8B0D;" d="M188.674,424.403c0-2.448-0.213-4.846-0.602-7.184c-30.902,6.29-58.129-21.054-77.166-19.464
				c-5.724,7.36-9.143,16.602-9.143,26.649l0,0H188.674L188.674,424.403z"/>
			<path style="fill:#ECB220;" d="M101.776,255.171v14.802c0,8.374,4.758,16.038,12.418,20c7.956,4.115,14.896,9.711,20.629,16.633
				c5.732,6.922,8.333,15.536,7.857,24.01h0.009l0.026,32.772c0.007,8.473-2.545,16.751-7.322,23.75l-0.138,0.202h20.274l0,0
				c-5.06-7.12-7.779-15.638-7.779-24.372v-32.352h0.007c-0.476-8.474,2.125-17.089,7.858-24.01
				c5.733-6.923,12.674-12.519,20.628-16.633c2.67-1.381,4.977-3.219,6.863-5.372C159.94,282.982,131.507,275.596,101.776,255.171z"
				/>
		</g>
		<g>
			<path style="fill:#165A7F;" d="M653.32,343.008L653.32,343.008L653.32,343.008c-5.166,38.417-40.498,65.372-78.915,60.206v0
				C579.571,364.797,614.903,337.842,653.32,343.008z"/>
			<path style="fill:#1C77B5;" d="M611.003,311.672L611.003,311.672L611.003,311.672c15.626,35.474-0.464,76.899-35.939,92.524v0
				C559.438,368.722,575.529,327.297,611.003,311.672z"/>
		</g>
		<g>
			<path style="fill:none;stroke:#A56F62;stroke-width:9;stroke-miterlimit:10;" d="M471.949,113.34
				c20.705,35.929,51.269,44.111,82.761,24.141"/>
			<path style="fill:#C6711C;" d="M539.152,152.939l16.505-4.764c4.566-1.563,7-6.531,5.437-11.097l0,0
				c-1.563-4.566-6.531-7-11.097-5.437l-16.505,4.764L539.152,152.939z"/>
			<g>
				<path style="fill:#A56F62;" d="M476.61,120.361c6.633-2.438,1.409-11.289,1.409-11.289l0.958-7.114c0,0-6.373-0.578-5.829,5.812
					c0,0-5.935-6.838-9.858-6.966c-1.842-0.06-7.218,4.666-8.612,8.247c-0.296,0.759,0.09,1.605,0.857,1.881
					c1.841,0.662,5.374,2.343,7.292,5.934C465.5,121.871,471.753,127.012,476.61,120.361z"/>
				<path style="fill:#8C5C53;" d="M473.148,107.771c0,0-4.185,3.185-1.816,8.83c0,0-1.216-5.331,2.081-8.518L473.148,107.771z"/>
				<path style="fill:#8C5C53;" d="M465.717,115.167c0,0,1.602-3.95,4.975-6.562C470.692,108.604,466.101,108.919,465.717,115.167z"
					/>
				<g>
					<path style="fill:#8C5C53;" d="M466.368,113.687l0.097-0.334c0,0-5.439-4.761-11.433-5.076
						c-0.055,0.107-0.108,0.214-0.157,0.32C457.122,108.954,462.405,110.132,466.368,113.687z"/>
					<path style="fill:#8C5C53;" d="M468.923,109.615l0.482-0.287c0,0-3.777-6.167-9.182-6.962
						c-1.073,0.829-2.221,1.915-3.218,3.077c1.73,0.321,6.793,1.606,10.292,6.065l0.31-0.3c0,0-3.779-6.217-9.963-6.287l2.139-2.19
						C459.782,102.732,465.534,103.781,468.923,109.615z"/>
				</g>
			</g>
		</g>
		<g>
			
				<line style="fill:none;stroke:#284159;stroke-width:13;stroke-miterlimit:10;" x1="575.633" y1="210.8" x2="575.633" y2="364.532"/>
			<g>
				<path style="fill:#ECB220;" d="M566.211,340.67l0.087,9.945c0,0-12.419,0.176-15.494,14.105l34.135-0.03l-0.545-24.18
					L566.211,340.67z"/>
				<path style="fill:#19283B;" d="M575.262,351.158c-0.041,2.158,1.281,3.933,2.952,3.965c1.672,0.032,3.06-1.691,3.102-3.849
					c0.041-2.158-1.28-3.933-2.952-3.965C576.692,347.277,575.303,349,575.262,351.158z"/>
			</g>
		</g>
		<path style="fill:none;stroke:#284159;stroke-width:13;stroke-miterlimit:10;" d="M557.531,205.96
			c-55.102,40.785-11.783,113.401-11.783,113.401"/>
		<g>
			<g>
				<path style="fill:#FF8B0D;" d="M536.329,316.46l0.087,9.945c0,0-12.419,0.176-15.494,14.105l34.135-0.03l-0.546-24.18
					L536.329,316.46z"/>
				<path style="fill:#19283B;" d="M545.38,326.948c-0.041,2.158,1.281,3.933,2.952,3.965c1.672,0.032,3.06-1.691,3.102-3.849
					c0.041-2.158-1.28-3.933-2.952-3.965C546.81,323.067,545.422,324.79,545.38,326.948z"/>
			</g>
		</g>
		<g>
			<g>
				
					<rect x="511.829" y="188" transform="matrix(0.9784 -0.2066 0.2066 0.9784 -55.1485 112.9777)" style="fill:#165A7F;" width="3" height="265.048"/>
			</g>
			<g>
				
					<rect x="555.725" y="188" transform="matrix(0.9784 -0.2066 0.2066 0.9784 -54.2014 122.0471)" style="fill:#165A7F;" width="3" height="265.048"/>
			</g>
			<g>
				<rect x="489.494" y="206.15" style="fill:#165A7F;" width="43.895" height="3"/>
			</g>
			<g>
				<rect x="494.234" y="228.458" style="fill:#165A7F;" width="43.896" height="3"/>
			</g>
			<g>
				<rect x="498.975" y="250.766" style="fill:#165A7F;" width="43.896" height="3"/>
			</g>
			<g>
				<rect x="503.716" y="273.075" style="fill:#165A7F;" width="43.896" height="3"/>
			</g>
			<g>
				<rect x="508.457" y="295.382" style="fill:#165A7F;" width="43.896" height="3"/>
			</g>
			<g>
				<rect x="513.197" y="317.691" style="fill:#165A7F;" width="43.896" height="3"/>
			</g>
			<g>
				<rect x="517.938" y="339.999" style="fill:#165A7F;" width="43.896" height="3"/>
			</g>
			<g>
				<rect x="522.678" y="362.307" style="fill:#165A7F;" width="43.896" height="3"/>
			</g>
			<g>
				<rect x="527.42" y="384.616" style="fill:#165A7F;" width="43.896" height="3"/>
			</g>
			<g>
				<rect x="532.16" y="406.924" style="fill:#165A7F;" width="43.896" height="3"/>
			</g>
			<g>
				<rect x="536.901" y="429.232" style="fill:#165A7F;" width="43.896" height="3"/>
			</g>
		</g>
		<g>
			<g>
				
					<rect x="370.333" y="319.024" transform="matrix(0.2064 -0.9785 0.9785 0.2064 85.4646 746.416)" style="fill:#1C77B5;" width="265.048" height="3"/>
			</g>
			<g>
				
					<rect x="326.437" y="319.024" transform="matrix(0.2064 -0.9785 0.9785 0.2064 50.6245 703.4624)" style="fill:#1C77B5;" width="265.048" height="3"/>
			</g>
			<g>
				<rect x="482.797" y="206.15" style="fill:#1C77B5;" width="43.896" height="3"/>
			</g>
			<g>
				<rect x="478.056" y="228.458" style="fill:#1C77B5;" width="43.896" height="3"/>
			</g>
			<g>
				<rect x="473.315" y="250.766" style="fill:#1C77B5;" width="43.896" height="3"/>
			</g>
			<g>
				<rect x="468.575" y="273.075" style="fill:#1C77B5;" width="43.896" height="3"/>
			</g>
			<g>
				<rect x="463.834" y="295.382" style="fill:#1C77B5;" width="43.896" height="3"/>
			</g>
			<g>
				<rect x="459.094" y="317.691" style="fill:#1C77B5;" width="43.896" height="3"/>
			</g>
			<g>
				<rect x="454.352" y="339.999" style="fill:#1C77B5;" width="43.896" height="3"/>
			</g>
			<g>
				<rect x="449.612" y="362.307" style="fill:#1C77B5;" width="43.896" height="3"/>
			</g>
			<g>
				<rect x="444.871" y="384.616" style="fill:#1C77B5;" width="43.895" height="3"/>
			</g>
			<g>
				<rect x="440.131" y="406.924" style="fill:#1C77B5;" width="43.896" height="3"/>
			</g>
			<g>
				<rect x="435.389" y="429.232" style="fill:#1C77B5;" width="43.896" height="3"/>
			</g>
		</g>
		<path style="fill:#284159;" d="M561.425,184.851h12.893c9.51,0,17.29,7.781,17.29,17.29v0c0,9.51-7.781,17.29-17.29,17.29h-12.893
			c-9.51,0-17.29-7.781-17.29-17.29v0C544.135,192.632,551.915,184.851,561.425,184.851z"/>
		<g>
			<path style="fill:#ECB220;" d="M545.942,192.45c-0.011,1.895,1.057,3.643,2.767,4.461c3.785,1.809,9.281,3.789,16.104,4.268
				c9.603,0.674,17.317-1.944,21.923-4.063c1.735-0.798,2.838-2.542,2.848-4.452c0.092-17.223,0.185-33.005,0.277-50.125
				c0.053-9.888-7.92-17.949-17.808-18.002l-9.021-0.048c-9.234-0.049-16.758,7.397-16.807,16.63L545.942,192.45z"/>
		</g>
		<g>
			<path style="fill:#A56F62;" d="M579.242,125.907c0.644,3.774-3.949,7.707-10.258,8.783c-6.309,1.076-11.945-1.111-12.589-4.885
				c-0.644-3.774,3.949-7.707,10.257-8.783C572.961,119.945,578.598,122.132,579.242,125.907z"/>
		</g>
		<path style="fill:#A56F62;" d="M568.179,69.45l0.843,0.005c5.405,0.029,9.75,6.895,9.705,15.337l-0.222,41.852l-20.415-0.108
			l0.222-41.852C558.357,76.241,562.774,69.421,568.179,69.45z"/>
		<path style="fill:#8C5C53;" d="M568.179,72.231l0.843,0.005c5.405,0.029,9.752,6.396,9.711,14.223l-0.152,28.594
			c-0.03,5.637-4.624,10.183-10.261,10.153l0,0c-5.637-0.03-10.183-4.624-10.153-10.261l0.152-28.594
			C558.359,78.524,562.774,72.202,568.179,72.231z"/>
		<path style="fill:#D88D87;" d="M563.766,107.379c0.16,0.957,2.143,1.422,4.429,1.04c2.286-0.382,4.009-1.468,3.849-2.425
			c-0.16-0.957-2.143-1.422-4.428-1.04S563.606,106.422,563.766,107.379z"/>
		<g>
			<g>
				<path style="fill:#252538;" d="M568.408,50.331c1.616,0,3.064,2.105,4.619,2.326c1.594,0.227,3.573-1.383,5.086-0.939
					c1.539,0.451,2.335,2.879,3.774,3.537c1.454,0.665,3.81-0.318,5.143,0.54c1.341,0.864,1.421,3.417,2.621,4.459
					c1.203,1.043,3.741,0.761,4.785,1.964c1.041,1.201,0.402,3.673,1.266,5.014c0.859,1.333,3.375,1.774,4.04,3.229
					c0.658,1.438-0.652,3.629-0.201,5.168c0.443,1.513,2.733,2.648,2.96,4.241c0.222,1.555-1.654,3.285-1.654,4.901
					c0,1.616,1.875,3.347,1.654,4.902c-0.227,1.594-2.516,2.729-2.96,4.242c-0.451,1.539,0.859,3.73,0.201,5.168
					c-0.665,1.454-3.182,1.895-4.041,3.229c-0.864,1.341-0.225,3.814-1.266,5.014c-1.043,1.203-3.582,0.92-4.785,1.963
					c-1.201,1.041-1.28,3.595-2.621,4.458c-1.333,0.859-3.689-0.125-5.143,0.54c-1.438,0.658-2.234,3.086-3.773,3.537
					c-1.513,0.443-3.492-1.167-5.086-0.94c-1.555,0.222-3.003,2.326-4.619,2.326c-1.616,0-3.065-2.105-4.62-2.326
					c-1.594-0.227-3.573,1.383-5.086,0.939c-1.539-0.451-2.335-2.879-3.774-3.537c-1.454-0.665-3.81,0.318-5.143-0.54
					c-1.341-0.864-1.421-3.417-2.621-4.459c-1.203-1.043-3.741-0.76-4.785-1.964c-1.041-1.201-0.402-3.673-1.266-5.014
					c-0.859-1.333-3.375-1.774-4.04-3.229c-0.658-1.438,0.652-3.629,0.201-5.168c-0.444-1.513-2.733-2.648-2.96-4.241
					c-0.222-1.555,1.654-3.285,1.654-4.901c0-1.616-1.875-3.347-1.654-4.902c0.227-1.594,2.516-2.729,2.96-4.241
					c0.451-1.539-0.859-3.73-0.201-5.168c0.665-1.454,3.182-1.895,4.041-3.229c0.864-1.341,0.225-3.814,1.266-5.015
					c1.043-1.203,3.582-0.92,4.785-1.963c1.201-1.041,1.28-3.595,2.621-4.458c1.333-0.859,3.689,0.125,5.143-0.54
					c1.438-0.658,2.234-3.086,3.773-3.537c1.513-0.444,3.492,1.167,5.086,0.939C565.344,52.436,566.792,50.331,568.408,50.331z"/>
			</g>
			<g>
				<path style="fill:#252538;" d="M548.252,94.152h39.031v-4.015c0-10.778-8.737-19.515-19.515-19.515h0
					c-10.778,0-19.515,8.737-19.515,19.515V94.152z"/>
				<path style="fill:#8C5C53;" d="M547.673,98.545h40.277c1.762,0,3.19-1.429,3.19-3.191l0,0c0-1.762-1.428-3.191-3.19-3.191
					h-40.277c-1.762,0-3.191,1.429-3.191,3.191l0,0C544.482,97.116,545.911,98.545,547.673,98.545z"/>
				<path style="fill:#AA635F;" d="M589.471,95.354L589.471,95.354c0-0.84-0.681-1.52-1.52-1.52h-40.277
					c-0.84,0-1.52,0.681-1.52,1.52l0,0c0,0.84,0.681,1.52,1.52,1.52h40.277C588.79,96.874,589.471,96.194,589.471,95.354z"/>
				<path style="fill:#A56F62;" d="M567.812,122.682L567.812,122.682c9.836,0,17.81-7.974,17.81-17.81V87.964
					c0-9.43-7.645-17.075-17.075-17.075h-1.471c-9.43,0-17.075,7.645-17.075,17.075v16.907
					C550.002,114.708,557.975,122.682,567.812,122.682z"/>
				<g>
					<path style="fill:#252538;" d="M563.233,104.925c1.911-0.389,4.574-1.065,7.066-2.154c1.639-0.717,3.188,1.337,2.388,3.199
						c-0.851,1.981-2.42,3.873-5.314,4.26c-2.372,0.317-3.92-0.241-4.931-1.08C561.013,107.964,561.529,105.272,563.233,104.925z"/>
					<path style="fill:#FF9292;" d="M567.374,110.23c2.894-0.387,4.463-2.279,5.314-4.26c0.12-0.279,0.181-0.562,0.203-0.84
						c-1.053-0.418-2.437-0.544-4.263-0.058c-2.82,0.75-4.122,2.823-4.699,4.893c-0.001,0.004-0.001,0.008-0.003,0.012
						C564.819,110.29,565.945,110.421,567.374,110.23z"/>
					<path style="fill:#FFABAB;" d="M565.877,107.92c0.308,0.478,1.403,0.348,2.446-0.289c1.043-0.637,1.638-1.541,1.33-2.018
						c-0.308-0.477-1.403-0.348-2.446,0.289C566.164,106.539,565.569,107.442,565.877,107.92z"/>
					<path style="fill:#FFFFFF;" d="M563.233,104.925c1.911-0.389,4.574-1.065,7.066-2.154c1.006-0.44,1.977,0.166,2.392,1.13
						c-1.429,1.396-3.653,2.574-6.286,3.175c-1.688,0.386-3.328,0.483-4.787,0.337C561.558,106.294,562.159,105.144,563.233,104.925
						z"/>
				</g>
				<path style="fill:#252538;" d="M565.473,70.338h4.589c9.511,0,17.221,7.71,17.221,17.221v1.303c0,0.137-0.006,0.272-0.016,0.407
					c-0.208,2.58-4.109,2.341-4.109-0.247v-0.628c0-4.573-3.707-8.28-8.28-8.28h-14.22c-4.573,0-8.28,3.707-8.28,8.28v0.628
					c0,2.589-3.901,2.828-4.109,0.247c-0.011-0.134-0.016-0.27-0.016-0.407v-1.303C548.252,78.048,555.962,70.338,565.473,70.338z"
					/>
				<g>
					<path style="fill:#8C5C53;" d="M572.643,91.55h3.935c0.896,0,1.622,0.726,1.622,1.622c0,0.896-0.726,1.622-1.622,1.622h-3.935
						c-0.896,0-1.622-0.726-1.622-1.622C571.021,92.276,571.747,91.55,572.643,91.55z"/>
					<path style="fill:#8C5C53;" d="M554.956,91.55h3.935c0.896,0,1.622,0.726,1.622,1.622c0,0.896-0.726,1.622-1.622,1.622h-3.935
						c-0.896,0-1.622-0.726-1.622-1.622C553.335,92.276,554.061,91.55,554.956,91.55z"/>
				</g>
				<g>
					<path style="fill:#252538;" d="M573.707,91.088c1.151,0,2.084,0.933,2.084,2.084c0,1.151-0.933,2.084-2.084,2.084
						c-1.151,0-2.084-0.933-2.084-2.084C571.623,92.021,572.556,91.088,573.707,91.088z"/>
					<path style="fill:#252538;" d="M557.914,91.088c1.151,0,2.085,0.933,2.085,2.084c0,1.151-0.933,2.084-2.085,2.084
						c-1.151,0-2.084-0.933-2.084-2.084C555.829,92.021,556.763,91.088,557.914,91.088z"/>
				</g>
				<g>
					<path style="fill:#252538;" d="M555.173,87.257l3.613-1.138c0.792-0.249,1.636,0.19,1.885,0.982
						c0.249,0.792-0.19,1.636-0.982,1.885l-3.613,1.138c-0.792,0.249-1.636-0.19-1.885-0.982
						C553.942,88.35,554.381,87.506,555.173,87.257z"/>
					<path style="fill:#252538;" d="M574.321,86.119l3.613,1.138c0.792,0.249,1.232,1.094,0.982,1.885
						c-0.25,0.792-1.094,1.231-1.885,0.982l-3.613-1.138c-0.792-0.249-1.232-1.093-0.982-1.885
						C572.685,86.309,573.529,85.869,574.321,86.119z"/>
				</g>
				<path style="fill:#8C5C53;" d="M563.921,114.263c0.289,0.9,2.265,1.069,4.413,0.38c2.149-0.69,3.656-1.978,3.368-2.878
					c-0.289-0.899-2.265-1.069-4.413-0.38C565.14,112.075,563.633,113.364,563.921,114.263z"/>
				<g>
					<path style="fill:#D88D87;" d="M565.452,101.831L565.452,101.831c1.638,0,2.966-1.328,2.966-2.966v-4.81
						c0-1.638-1.328-2.966-2.966-2.966l0,0c-1.638,0-2.966,1.328-2.966,2.966v4.81C562.486,100.503,563.814,101.831,565.452,101.831
						z"/>
					<path style="fill:#F79C97;" d="M563.877,100.146L563.877,100.146c0.433,0,0.784-0.351,0.784-0.784v-5.568
						c0-0.433-0.351-0.784-0.784-0.784l0,0c-0.433,0-0.784,0.351-0.784,0.784v5.568C563.093,99.795,563.444,100.146,563.877,100.146
						z"/>
				</g>
			</g>
		</g>
		<g>
			<g>
				<g>
					<circle style="fill:none;stroke:#5E8BEF;stroke-width:12;stroke-miterlimit:10;" cx="375.552" cy="181.353" r="106.485"/>
					<circle style="fill:none;stroke:#5E8BEF;stroke-width:12;stroke-miterlimit:10;" cx="375.552" cy="181.353" r="36.106"/>
					<g>
						
							<line style="fill:none;stroke:#5E8BEF;stroke-width:12;stroke-miterlimit:10;" x1="375.552" y1="145.247" x2="375.552" y2="74.868"/>
						
							<line style="fill:none;stroke:#5E8BEF;stroke-width:12;stroke-miterlimit:10;" x1="375.552" y1="284.857" x2="375.552" y2="214.479"/>
					</g>
					<g>
						
							<line style="fill:none;stroke:#5E8BEF;stroke-width:12;stroke-miterlimit:10;" x1="410.168" y1="179.863" x2="480.547" y2="179.863"/>
						
							<line style="fill:none;stroke:#5E8BEF;stroke-width:12;stroke-miterlimit:10;" x1="270.557" y1="179.863" x2="340.936" y2="179.863"/>
					</g>
				</g>
				<g>
					<g>
						<polygon style="fill:#5E8BEF;" points="363.948,48.812 358.392,75.288 392.712,75.288 387.155,48.812 						"/>
						<polygon style="fill:#5E8BEF;" points="363.948,313.894 387.155,313.894 392.712,287.418 358.392,287.418 						"/>
						<polygon style="fill:#5E8BEF;" points="481.617,164.193 481.617,198.513 508.093,192.956 508.093,169.749 						"/>
						<polygon style="fill:#5E8BEF;" points="243.011,192.956 269.487,198.513 269.487,164.193 243.011,169.749 						"/>
					</g>
					<g>
						<polygon style="fill:#5E8BEF;" points="462.322,80.493 439.491,95.004 463.456,119.57 478.528,97.105 						"/>
						<polygon style="fill:#5E8BEF;" points="272.576,265.601 288.782,282.213 311.613,267.702 287.647,243.136 						"/>
						<polygon style="fill:#5E8BEF;" points="461.901,245.291 437.335,269.257 459.8,284.328 476.412,268.123 						"/>
						<polygon style="fill:#5E8BEF;" points="274.692,94.583 289.203,117.414 313.769,93.448 291.304,78.377 						"/>
					</g>
				</g>
				<g>
					<polygon style="fill:#5E8BEF;" points="399.73,76.664 431.508,89.629 436.364,63.016 414.877,54.249 					"/>
					<polygon style="fill:#5E8BEF;" points="314.74,299.69 336.227,308.456 351.374,286.042 319.596,273.077 					"/>
					<polygon style="fill:#5E8BEF;" points="467.276,237.309 493.889,242.165 502.655,220.678 480.241,205.531 					"/>
					<polygon style="fill:#5E8BEF;" points="248.448,142.028 270.863,157.174 283.828,125.397 257.215,120.541 					"/>
					<polygon style="fill:#5E8BEF;" points="502.723,142.247 493.993,120.744 467.372,125.555 480.282,157.355 					"/>
					<polygon style="fill:#5E8BEF;" points="248.381,220.459 257.111,241.961 283.732,237.151 270.822,205.351 					"/>
					<polygon style="fill:#5E8BEF;" points="399.55,286.083 414.658,308.524 436.16,299.794 431.35,273.173 					"/>
					<polygon style="fill:#5E8BEF;" points="314.944,62.911 319.754,89.533 351.554,76.623 336.446,54.182 					"/>
				</g>
			</g>
			<g>
				<g>
					<g>
						<path style="fill:#83A9FF;" d="M385.191,293.837c-62.024,0-112.484-50.46-112.484-112.484S323.167,68.868,385.191,68.868
							c62.024,0,112.485,50.461,112.485,112.485S447.216,293.837,385.191,293.837z M385.191,80.868
							c-55.407,0-100.484,45.077-100.484,100.485c0,55.407,45.077,100.484,100.484,100.484c55.408,0,100.485-45.077,100.485-100.484
							C485.676,125.945,440.599,80.868,385.191,80.868z"/>
					</g>
					<g>
						<path style="fill:#83A9FF;" d="M385.191,223.458c-23.217,0-42.105-18.889-42.105-42.105s18.889-42.105,42.105-42.105
							c23.218,0,42.106,18.889,42.106,42.105S408.409,223.458,385.191,223.458z M385.191,151.247
							c-16.6,0-30.105,13.505-30.105,30.105s13.505,30.105,30.105,30.105c16.601,0,30.106-13.505,30.106-30.105
							S401.792,151.247,385.191,151.247z"/>
					</g>
					<g>
						<g>
							<rect x="379.191" y="74.868" style="fill:#83A9FF;" width="12" height="70.379"/>
						</g>
						<g>
							<rect x="379.191" y="214.479" style="fill:#83A9FF;" width="12" height="70.379"/>
						</g>
					</g>
					<g>
						<g>
							<rect x="419.807" y="173.863" style="fill:#83A9FF;" width="70.379" height="12"/>
						</g>
						<g>
							<rect x="280.197" y="173.863" style="fill:#83A9FF;" width="70.379" height="12"/>
						</g>
					</g>
				</g>
				<g>
					<g>
						<g>
							<polygon style="fill:#83A9FF;" points="373.588,48.812 368.031,75.288 402.352,75.288 396.795,48.812 							"/>
						</g>
						<g>
							<polygon style="fill:#83A9FF;" points="373.588,313.894 396.795,313.894 402.352,287.418 368.031,287.418 							"/>
						</g>
						<g>
							<polygon style="fill:#83A9FF;" points="491.257,164.193 491.257,198.513 517.732,192.956 517.732,169.749 							"/>
						</g>
						<g>
							<polygon style="fill:#83A9FF;" points="252.65,192.956 279.126,198.513 279.126,164.193 252.65,169.749 							"/>
						</g>
					</g>
					<g>
						<g>
							<polygon style="fill:#83A9FF;" points="471.961,80.493 449.13,95.004 473.096,119.57 488.167,97.105 							"/>
						</g>
						<g>
							<polygon style="fill:#83A9FF;" points="282.216,265.601 298.421,282.213 321.253,267.702 297.287,243.136 							"/>
						</g>
						<g>
							<polygon style="fill:#83A9FF;" points="471.541,245.291 446.974,269.257 469.44,284.328 486.051,268.123 							"/>
						</g>
						<g>
							<polygon style="fill:#83A9FF;" points="284.332,94.583 298.842,117.414 323.409,93.448 300.943,78.377 							"/>
						</g>
					</g>
				</g>
				<g>
					<g>
						<polygon style="fill:#83A9FF;" points="409.37,76.664 441.147,89.629 446.004,63.016 424.516,54.249 						"/>
					</g>
					<g>
						<polygon style="fill:#83A9FF;" points="324.379,299.69 345.867,308.456 361.013,286.042 329.236,273.077 						"/>
					</g>
					<g>
						<polygon style="fill:#83A9FF;" points="476.915,237.309 503.528,242.165 512.295,220.678 489.88,205.531 						"/>
					</g>
					<g>
						<polygon style="fill:#83A9FF;" points="258.088,142.028 280.503,157.174 293.468,125.397 266.854,120.541 						"/>
					</g>
					<g>
						<polygon style="fill:#83A9FF;" points="512.362,142.247 503.633,120.744 477.012,125.555 489.922,157.355 						"/>
					</g>
					<g>
						<polygon style="fill:#83A9FF;" points="258.02,220.459 266.75,241.961 293.371,237.151 280.461,205.351 						"/>
					</g>
					<g>
						<polygon style="fill:#83A9FF;" points="409.19,286.083 424.297,308.524 445.8,299.794 440.989,273.173 						"/>
					</g>
					<g>
						<polygon style="fill:#83A9FF;" points="324.583,62.911 329.394,89.533 361.193,76.623 346.086,54.182 						"/>
					</g>
				</g>
			</g>
		</g>
		<rect x="59.639" y="448.027" style="fill:#3E5C70;" width="630.722" height="3.161"/>
		<path style="fill:none;stroke:#A56F62;stroke-width:9;stroke-miterlimit:10;" d="M497.676,172.645
			c37.578,17.535,67.302,6.69,81.625-27.739"/>
		<path style="fill:#C6711C;" d="M575.16,163.265l11.242-12.99c2.976-3.799,2.309-9.291-1.489-12.267h0
			c-3.799-2.976-9.291-2.309-12.267,1.49l-11.242,12.99L575.16,163.265z"/>
		<g>
			<g>
				<path style="fill:#A56F62;" d="M504.568,175.788c6.249-3.528-0.434-11.543-0.434-11.543l-0.203-7.285
					c0,0-6.481,0.463-4.891,6.778c0,0-5.495-3.446-7.276-7.959c-2.174-5.508-10.056,6.021-9.607,12.017
					c0.244,3.256,5.051,3.965,7.561,7.25C493.214,179.623,500.788,183.247,504.568,175.788z"/>
			</g>
			<g>
				<path style="fill:#8C5C53;" d="M493.531,168.831l-0.283,0.447c0,0-6.327-2.999-9.573-7.875c0.133-0.291,0.271-0.581,0.417-0.867
					C485.212,162.614,487.799,166.035,493.531,168.831z"/>
				<path style="fill:#8C5C53;" d="M491.196,171.983c0,0-5.735-2.643-8.943-6.09c0.049-0.319,0.115-0.645,0.192-0.976
					c1.337,1.497,4.272,4.319,9.066,6.595L491.196,171.983z"/>
				<path style="fill:#8C5C53;" d="M495.706,165.938c0,0-6.546-2.86-9.129-9.223c0.289-0.344,0.58-0.659,0.871-0.941
					c0.936,2.516,3.179,6.623,8.434,9.844L495.706,165.938z"/>
			</g>
		</g>
		<g>
			<path style="fill:#ECB220;" d="M647.597,448.027H434.176V391.2h213.421c14.432,0,26.13,11.699,26.13,26.131v4.565
				C673.727,436.328,662.029,448.027,647.597,448.027z"/>
			<path style="fill:#EDCB3A;" d="M541.39,391.2H413.366v4.818h54.055c13.011,0,23.595,10.585,23.595,23.595
				c0,13.011-10.585,23.595-23.595,23.595h-54.055v4.818H541.39c15.692,0,28.413-12.721,28.413-28.413l0,0
				C569.803,403.921,557.082,391.2,541.39,391.2z"/>
			<path style="fill:#FFFFFF;" d="M418.184,443.209v-47.191H541.39c13.011,0,23.595,10.585,23.595,23.595
				c0,13.011-10.585,23.595-23.595,23.595H418.184z"/>
			<g>
				<path style="fill:#83A9FF;" d="M562.346,408.79c-0.141-0.271-0.286-0.538-0.436-0.803H418.184v0.803H562.346z"/>
				<path style="fill:#83A9FF;" d="M564.707,415.989c-0.042-0.27-0.093-0.536-0.144-0.803H418.184v0.803H564.707z"/>
				<path style="fill:#83A9FF;" d="M418.184,401.592h138.413c-0.327-0.276-0.659-0.545-1-0.803H418.184V401.592z"/>
				<path style="fill:#83A9FF;" d="M562.372,430.386c0.137-0.265,0.27-0.532,0.397-0.803H418.184v0.803H562.372z"/>
				<path style="fill:#83A9FF;" d="M564.715,423.188c0.041-0.266,0.071-0.535,0.102-0.803H418.184v0.803H564.715z"/>
				<path style="fill:#83A9FF;" d="M556.656,437.584c0.306-0.26,0.604-0.528,0.896-0.803H418.184v0.803H556.656z"/>
			</g>
			
				<ellipse transform="matrix(0.9247 -0.3806 0.3806 0.9247 -109.8676 279.2938)" style="fill:#EDCB3A;" cx="651.22" cy="417.431" rx="8.843" ry="8.843"/>
		</g>
		<g>
			<g>
				<path style="fill:none;stroke:#FFB692;stroke-width:9;stroke-miterlimit:10;" d="M226.6,228.467
					c5.471,55.576,77.685,42.65,77.685,42.65"/>
				<path style="fill:#C6711C;" d="M237.613,240.329l-1.813-17.083c-0.743-4.769-5.211-8.032-9.979-7.289v0
					c-4.768,0.743-8.032,5.21-7.289,9.979l1.813,17.083L237.613,240.329z"/>
				<g>
					<path style="fill:#FFB692;" d="M298.204,268.146c0.202-7.064,10.255-4.925,10.255-4.925l6.44-3.17c0,0,2.574,5.858-3.657,7.375
						c0,0,8.37,3.452,9.739,7.132c0.643,1.728-2.129,8.327-5.081,10.787c-0.626,0.522-1.551,0.425-2.056-0.214
						c-1.213-1.535-3.93-4.35-7.945-5.027C300.304,279.16,293.442,274.865,298.204,268.146z"/>
					<path style="fill:#D88D87;" d="M311.241,267.425c0,0-1.689,4.981-7.794,4.529c0,0,5.441-0.542,7.414-4.681L311.241,267.425z"/>
					<path style="fill:#D88D87;" d="M306.592,276.822c0,0,3.236-2.774,4.64-6.803C311.232,270.019,312.394,274.472,306.592,276.822z
						"/>
					<g>
						<path style="fill:#D88D87;" d="M307.788,275.735l0.285-0.198c0,0,6.244,3.643,8.448,9.226
							c-0.084,0.087-0.169,0.17-0.254,0.251C315.215,282.996,312.419,278.361,307.788,275.735z"/>
						<path style="fill:#D88D87;" d="M310.836,272.017l0.118-0.548c0,0,7.048,1.62,9.52,6.491c-0.445,1.281-1.109,2.715-1.894,4.029
							c-0.854-1.539-3.682-5.93-9.022-7.829l0.186-0.389c0,0,7.096,1.606,9.129,7.447l1.396-2.724
							C320.268,278.495,317.445,273.375,310.836,272.017z"/>
					</g>
				</g>
			</g>
			<g>
				<g>
					<g>
						
							<line style="fill:none;stroke:#284159;stroke-width:13;stroke-miterlimit:10;" x1="220.458" y1="294.106" x2="220.458" y2="447.839"/>
						<g>
							<path style="fill:#FF8B0D;" d="M229.881,423.977l-0.087,9.945c0,0,12.419,0.176,15.494,14.105l-34.135-0.03l0.545-24.18
								L229.881,423.977z"/>
							<path style="fill:#19283B;" d="M220.83,434.465c0.041,2.158-1.281,3.933-2.952,3.965c-1.672,0.032-3.06-1.691-3.102-3.849
								c-0.041-2.158,1.28-3.933,2.952-3.965C219.4,430.583,220.789,432.307,220.83,434.465z"/>
						</g>
					</g>
					<path style="fill:#284159;" d="M215.921,268.158h-12.892c-9.51,0-17.29,7.78-17.29,17.29v0c0,9.51,7.781,17.29,17.29,17.29
						h12.892c9.51,0,17.29-7.781,17.29-17.29v0C233.212,275.938,225.431,268.158,215.921,268.158z"/>
					<g>
						<path style="fill:#ECB220;" d="M231.404,275.757c0.01,1.895-1.057,3.643-2.767,4.461c-3.785,1.809-9.281,3.789-16.105,4.268
							c-9.604,0.674-17.317-1.944-21.923-4.063c-1.735-0.798-2.838-2.542-2.848-4.452c-0.092-17.223-0.185-33.005-0.277-50.125
							c-0.053-9.888,7.92-17.949,17.808-18.002l9.021-0.048c9.234-0.049,16.759,7.396,16.807,16.63L231.404,275.757z"/>
					</g>
					<g>
						<path style="fill:#FFB692;" d="M198.105,209.213c-0.644,3.774,3.949,7.707,10.258,8.783
							c6.309,1.076,11.945-1.111,12.589-4.885c0.644-3.774-3.949-7.707-10.258-8.783
							C204.385,203.251,198.749,205.439,198.105,209.213z"/>
					</g>
					<path style="fill:#FFB692;" d="M209.168,152.756l-0.843,0.005c-5.405,0.029-9.75,6.895-9.705,15.337l0.222,41.852l20.415-0.108
						l-0.222-41.852C218.99,159.548,214.572,152.728,209.168,152.756z"/>
					<path style="fill:#D88D87;" d="M209.168,156.312l-0.843,0.005c-5.405,0.029-9.752,6.396-9.711,14.223l0.152,28.594
						c0.03,5.637,4.624,10.183,10.261,10.153l0,0c5.637-0.03,10.183-4.624,10.153-10.261l-0.152-28.594
						C218.987,162.605,214.572,156.283,209.168,156.312z"/>
					<path style="fill:#D88D87;" d="M213.581,190.686c-0.16,0.957-2.143,1.422-4.429,1.04c-2.286-0.382-4.009-1.468-3.849-2.425
						c0.16-0.957,2.143-1.422,4.428-1.04C212.018,188.643,213.741,189.729,213.581,190.686z"/>
					<g>
						
							<line style="fill:none;stroke:#284159;stroke-width:13;stroke-miterlimit:10;" x1="199.348" y1="294.106" x2="199.348" y2="447.839"/>
						<g>
							<path style="fill:#ECB220;" d="M208.77,423.977l-0.087,9.945c0,0,12.419,0.176,15.494,14.105l-34.135-0.03l0.545-24.18
								L208.77,423.977z"/>
							<path style="fill:#19283B;" d="M199.719,434.465c0.041,2.158-1.281,3.933-2.952,3.965c-1.672,0.032-3.06-1.691-3.102-3.849
								c-0.041-2.158,1.28-3.933,2.952-3.965C198.29,430.583,199.678,432.307,199.719,434.465z"/>
						</g>
					</g>
					<g>
						<ellipse style="fill:#ECB220;" cx="210.17" cy="152.108" rx="16.524" ry="12.496"/>
						<ellipse style="fill:#FF8B0D;" cx="210.17" cy="165.051" rx="23.852" ry="20.394"/>
						<path style="fill:#D88D87;" d="M188.774,180.72h42.834c1.874,0,3.393-1.519,3.393-3.393l0,0c0-1.874-1.519-3.393-3.393-3.393
							h-42.834c-1.874,0-3.393,1.519-3.393,3.393l0,0C185.381,179.201,186.9,180.72,188.774,180.72z"/>
						<path style="fill:#AA635F;" d="M233.224,177.327L233.224,177.327c0-0.893-0.724-1.617-1.617-1.617h-42.834
							c-0.893,0-1.617,0.724-1.617,1.617l0,0c0,0.893,0.724,1.617,1.617,1.617h42.834
							C232.501,178.943,233.224,178.22,233.224,177.327z"/>
						<path style="fill:#FFB692;" d="M210.191,206.388L210.191,206.388c10.461,0,18.941-8.48,18.941-18.941v-17.98
							c0-10.029-8.13-18.158-18.159-18.158h-1.564c-10.029,0-18.159,8.13-18.159,18.158v17.98
							C191.25,197.908,199.73,206.388,210.191,206.388z"/>
						<g>
							<path style="fill:#D88D87;" d="M218.731,173.21h4.185c0.953,0,1.725,0.772,1.725,1.725c0,0.952-0.772,1.725-1.725,1.725
								h-4.185c-0.953,0-1.725-0.772-1.725-1.725C217.006,173.983,217.778,173.21,218.731,173.21z"/>
							<path style="fill:#D88D87;" d="M199.922,173.21h4.185c0.952,0,1.725,0.772,1.725,1.725c0,0.952-0.772,1.725-1.725,1.725
								h-4.185c-0.953,0-1.725-0.772-1.725-1.725C198.197,173.983,198.97,173.21,199.922,173.21z"/>
						</g>
						<g>
							<path style="fill:#252538;" d="M219.817,172.789c1.224,0,2.217,0.993,2.217,2.217c0,1.224-0.992,2.217-2.217,2.217
								c-1.224,0-2.217-0.992-2.217-2.217C217.6,173.782,218.592,172.789,219.817,172.789z"/>
							<path style="fill:#252538;" d="M203.021,172.789c1.224,0,2.217,0.993,2.217,2.217c0,1.224-0.992,2.217-2.217,2.217
								c-1.224,0-2.217-0.992-2.217-2.217C200.804,173.782,201.797,172.789,203.021,172.789z"/>
						</g>
						<g>
							<path style="fill:#54321A;" d="M199.316,168.688l3.842-1.21c0.842-0.265,1.74,0.202,2.005,1.044
								c0.265,0.842-0.202,1.74-1.044,2.005l-3.842,1.21c-0.842,0.265-1.74-0.202-2.005-1.044
								C198.006,169.851,198.474,168.953,199.316,168.688z"/>
							<path style="fill:#54321A;" d="M219.679,167.478l3.842,1.21c0.842,0.265,1.31,1.163,1.044,2.005
								c-0.265,0.842-1.163,1.31-2.005,1.044l-3.842-1.21c-0.842-0.265-1.31-1.163-1.044-2.005
								C217.94,167.68,218.837,167.213,219.679,167.478z"/>
						</g>
						<path style="fill:#D88D87;" d="M205.845,196.107c0,1.005,1.946,1.819,4.345,1.819s4.345-0.814,4.345-1.819
							c0-1.005-1.946-1.819-4.345-1.819S205.845,195.103,205.845,196.107z"/>
						<path style="fill:#8C5C53;" d="M205.624,185.387l-0.446,0.351c0.229,0.274,3.342,3.838,9.766,3.3l-0.545-0.479l0.391-0.444
							l1.547,1.361l-0.653,0.081c-0.735,0.091-1.429,0.132-2.086,0.132c-5.848,0-8.627-3.265-8.885-3.584l-0.662,0.521
							C204.05,186.626,203.87,184.926,205.624,185.387z"/>
						<g>
							<path style="fill:#D88D87;" d="M211.951,184.214L211.951,184.214c1.742,0,3.155-1.412,3.155-3.154v-5.115
								c0-1.742-1.412-3.155-3.155-3.155l0,0c-1.742,0-3.155,1.412-3.155,3.155v5.115
								C208.797,182.802,210.209,184.214,211.951,184.214z"/>
							<path style="fill:#F79C97;" d="M210.276,182.423L210.276,182.423c0.46,0,0.833-0.373,0.833-0.833v-5.921
								c0-0.46-0.373-0.833-0.833-0.833l0,0c-0.46,0-0.833,0.373-0.833,0.833v5.921C209.442,182.05,209.815,182.423,210.276,182.423
								z"/>
						</g>
						<path style="fill:#54321A;" d="M209.409,151.309h1.564c7.565,0,14.046,4.626,16.776,11.203
							c-0.057-0.045-5.959-4.66-14.732-3.776v7.5c0,0-8.092-2.971-8.092-8.92v5.433c0,0-5.348-0.395-5.348-3.29
							c0,0-3.565-0.276-6.904,2.954C195.425,155.889,201.882,151.309,209.409,151.309z"/>
					</g>
				</g>
			</g>
			<g>
				
					<rect x="267.336" y="265.85" transform="matrix(0.9619 -0.2735 0.2735 0.9619 -62.3863 96.8424)" style="fill:#F4F4F4;" width="97.594" height="12.64"/>
				
					<rect x="268.2" y="272.05" transform="matrix(0.9619 -0.2735 0.2735 0.9619 -63.1847 97.1947)" style="fill:#C0D4FF;" width="97.594" height="6.32"/>
				<g>
					<polygon style="fill:#C0D4FF;" points="373.03,268.405 360.044,266.255 356.715,253.809 366.498,245.436 					"/>
					<polygon style="fill:#F4F4F4;" points="373.03,268.405 393.469,259.2 388.723,242.51 366.498,245.436 					"/>
				</g>
				<path style="fill:#1C77B5;" d="M275.986,300.584l-97.686,27.777c-3.342,0.95-6.822-0.989-7.773-4.331l-5.502-19.348
					c-0.95-3.342,0.989-6.822,4.331-7.773l97.686-27.777c3.342-0.95,6.822,0.989,7.773,4.331l5.502,19.348
					C281.267,296.153,279.328,299.633,275.986,300.584z"/>
				<path style="fill:#165A7F;" d="M277.439,282.69L167.48,313.313l3.337,11.734c0.79,2.78,3.685,4.393,6.465,3.602l99.723-28.356
					c2.78-0.79,4.393-3.685,3.602-6.465L277.439,282.69z"/>
			</g>
			<path style="fill:none;stroke:#FFB692;stroke-width:9;stroke-miterlimit:10;" d="M189.438,224.621
				c-19.988,52.146,50.373,72.915,50.373,72.915"/>
			<path style="fill:#C6711C;" d="M193.663,242.057l4.288-16.635c0.975-4.727-2.066-9.348-6.792-10.323h0
				c-4.726-0.975-9.348,2.066-10.323,6.792l-4.288,16.635L193.663,242.057z"/>
			<g>
				<g>
					<path style="fill:#FFB692;" d="M234.007,294.345c-0.067-7.176,10.215-5.392,10.215-5.392l6.412-3.465
						c0,0,2.837,5.845-3.427,7.624c0,0,5.731,3.038,10.53,2.326c5.858-0.87-0.19,11.719-5.608,14.326
						c-2.943,1.416-5.959-2.394-10.059-2.927C236.357,306.096,229.433,301.346,234.007,294.345z"/>
				</g>
				<g>
					<path style="fill:#D88D87;" d="M245.547,300.428l-0.246,0.469c0,0,5.759,3.982,11.605,4.357
						c0.186-0.261,0.368-0.525,0.543-0.794C255.089,304.528,250.833,303.996,245.547,300.428z"/>
					<path style="fill:#D88D87;" d="M243.984,304.026c0,0,5.155,3.647,9.744,4.703c0.252-0.202,0.502-0.422,0.75-0.654
						c-1.965-0.41-5.875-1.542-10.242-4.558L243.984,304.026z"/>
					<path style="fill:#D88D87;" d="M246.966,297.099c0,0,5.748,4.241,12.55,3.299c0.154-0.422,0.281-0.832,0.38-1.225
						c-2.647,0.447-7.325,0.556-12.742-2.386L246.966,297.099z"/>
				</g>
			</g>
		</g>
	</g>
</g>
</svg>
